# Blender v2.64 (sub 0) OBJ File: ''
# www.blender.org
mtllib canbase.mtl
o Cube
v -2.000000 -1.000000 -1.000000
v -2.000000 -1.000000 1.000000
v -2.000000 1.000000 1.000000
v -2.000000 1.000000 -1.000000
v 2.000000 1.000000 -1.000000
v 2.000000 -1.000000 -1.000000
v 2.000000 1.000000 1.000000
v 2.000000 -1.000000 1.000000
v 1.000000 2.000000 1.000000
v -1.000000 2.000000 1.000000
v -1.000000 3.000000 -1.000000
v 1.000000 3.000000 -1.000000
v 1.000000 2.000000 -1.000000
v -1.000000 2.000000 -1.000000
v 1.000000 2.000000 1.000000
v 1.000000 3.000000 1.000000
v 1.000000 3.000000 1.000000
v 2.000000 3.500000 1.000000
v -2.000000 3.500000 1.000000
v -1.000000 3.000000 1.000000
v -2.000000 3.500000 -1.000000
v 2.000000 3.500000 -1.000000
v 1.000000 2.000000 -1.000000
v 1.000000 3.000000 -1.000000
v -1.000000 3.500000 1.000000
v -2.500000 5.000000 1.000000
v -3.500000 5.000000 1.000000
v 2.000000 3.500000 -1.000000
v 2.000000 3.500000 1.000000
v 3.500000 5.000000 1.000000
v 3.500000 5.000000 -1.000000
v 0.500000 3.500000 1.000000
v -0.500000 3.500000 1.000000
v 1.000000 3.500000 1.000000
v 2.500000 5.000000 -1.000000
v 2.500000 5.000000 1.000000
v 1.000000 3.500000 -1.000000
v 3.500000 5.000000 1.000000
v -1.000000 3.500000 -1.000000
v 2.500000 5.000000 1.000000
v 2.500000 5.000000 -1.000000
v 3.500000 5.000000 -1.000000
v -2.500000 5.000000 -1.000000
v -3.500000 5.000000 -1.000000
v 0.500000 4.000000 1.419325
v -0.500000 4.000000 1.419325
v -0.500000 3.500000 -1.000000
v 0.500000 3.500000 -1.000000
v 0.500000 4.000000 -1.000000
v 0.500000 4.000000 1.000000
v 0.000000 4.500000 1.000000
v 0.000000 4.500000 -1.000000
v -0.500000 4.000000 -1.366551
v 0.500000 4.000000 -1.366551
v 0.000000 4.500000 -1.090437
v 0.000000 4.500000 -1.000000
v 0.000000 4.500000 1.049183
v 0.000000 4.500000 1.000000
vt 0.487207 0.000742
vt 0.729141 0.000000
vt 0.729882 0.241597
vt 0.487948 0.242339
vt 0.242861 0.242676
vt 0.000928 0.241934
vt 0.001670 0.000000
vt 0.243604 0.000742
vt 0.486276 0.785931
vt 0.244342 0.786673
vt 0.243604 0.545835
vt 0.485537 0.545093
vt 0.487207 0.544351
vt 0.245274 0.545093
vt 0.244531 0.303159
vt 0.486465 0.302417
vt 0.001670 0.787769
vt 0.000928 0.545835
vt 0.242861 0.545093
vt 0.243604 0.787026
vt 0.304644 0.182007
vt 0.425610 0.181636
vt 0.181636 0.484424
vt 0.060669 0.484053
vt 0.061040 0.363086
vt 0.182007 0.363457
vt 0.730262 0.365584
vt 0.488329 0.366326
vt 0.486663 0.912099
vt 0.244729 0.912841
vt 0.000000 0.000000
vt 0.485537 0.000000
vt 0.425239 0.060669
vt 0.304273 0.061040
vt 0.241934 0.545093
vt 0.000000 0.544351
vt 0.487207 0.487867
vt 0.729511 0.607923
vt 0.729141 0.487125
vt 0.487578 0.608666
vt 0.730633 0.486383
vt 0.488699 0.487125
vt 0.243525 0.990637
vt 0.189417 1.000000
vt 0.189495 0.814797
vt 0.243604 0.787769
vt 0.487773 0.672253
vt 0.730277 0.857491
vt 0.729706 0.671511
vt 0.488343 0.858234
vt 0.904122 0.242461
vt 0.903379 0.000528
vt 0.963863 0.000342
vt 0.964605 0.242276
vt 0.731375 0.242461
vt 0.902637 0.000000
vt 0.730633 0.000528
vt 0.903379 0.241934
vt 0.189339 0.990637
vt 0.135308 0.814797
vt 0.136049 1.000000
vt 0.189417 0.787769
vt 0.968274 0.245006
vt 0.908533 0.487125
vt 0.969016 0.486939
vt 0.907790 0.245191
vt 0.000928 0.787769
vt 0.055115 1.000000
vt 0.055036 0.814797
vt 0.001006 0.990637
vt 0.853412 0.971573
vt 0.854154 0.729639
vt 0.914637 0.729825
vt 0.913895 0.971758
vt 0.919530 0.487125
vt 0.920272 0.729058
vt 0.731019 0.729639
vt 0.730277 0.487705
vt 0.731375 0.487125
vt 0.730633 0.245191
vt 0.907048 0.244650
vt 0.907790 0.486584
vt 0.055115 0.787769
vt 0.109223 0.814797
vt 0.106844 0.999643
vt 0.055193 0.990637
vt 0.669608 0.918810
vt 0.730091 0.918624
vt 0.730277 0.979108
vt 0.669793 0.979293
vt 0.999258 0.245099
vt 1.000000 0.487032
vt 0.969758 0.487125
vt 0.969016 0.245191
vt 0.965347 0.242461
vt 0.964605 0.000528
vt 0.994847 0.000435
vt 0.995589 0.242369
vt 0.979077 0.487525
vt 0.921014 0.729639
vt 0.979819 0.729459
vt 0.920272 0.487705
vt 0.793012 0.971758
vt 0.792270 0.729824
vt 0.852670 0.729639
vt 0.487207 0.918810
vt 0.547691 0.918624
vt 0.547876 0.979108
vt 0.487393 0.979293
vt 0.915380 0.971757
vt 0.914637 0.729824
vt 0.974847 0.729639
vt 0.975589 0.971573
vt 0.517263 0.858234
vt 0.699664 0.858234
vt 0.731019 0.971948
vt 0.730277 0.730015
vn -1.000000 -0.000000 0.000000
vn -0.000000 -0.000000 -1.000000
vn 1.000000 0.000000 0.000000
vn 0.000000 0.000000 1.000000
vn 0.000000 -1.000000 0.000000
vn -0.707107 0.707107 -0.000000
vn 0.707107 0.707107 -0.000000
vn 0.000000 0.000000 0.000000
vn 0.707107 -0.707107 0.000000
vn -0.447214 -0.894427 0.000000
vn 0.447214 -0.894427 0.000000
vn 0.000000 1.000000 0.000000
vn -0.707107 -0.707107 0.000000
vn 0.000000 -0.642586 0.766214
vn -0.000000 -0.591242 -0.806494
vn 0.000000 0.483415 -0.875391
vn 0.000000 0.594991 0.803732
usemtl Material
s off
f 1/1/1 2/2/1 3/3/1
f 1/1/1 3/3/1 4/4/1
f 4/5/2 5/6/2 6/7/2
f 6/7/2 1/8/2 4/5/2
f 5/9/3 7/10/3 8/11/3
f 5/9/3 8/11/3 6/12/3
f 2/13/4 8/14/4 7/15/4
f 2/13/4 7/15/4 3/16/4
f 2/17/5 1/18/5 6/19/5
f 2/17/5 6/19/5 8/20/5
f 9/21/4 10/22/4 3/16/4
f 9/21/4 3/16/4 7/15/4
f 11/23/2 12/24/2 13/25/2
f 11/23/2 13/25/2 14/26/2
f 14/26/2 13/25/2 5/6/2
f 14/26/2 5/6/2 4/5/2
f 10/27/6 14/28/6 4/4/6
f 10/27/6 4/4/6 3/3/6
f 13/29/7 9/30/7 7/10/7
f 13/29/7 7/10/7 5/9/7
f 15/31/8 16/31/8 9/31/8
f 15/31/8 17/31/8 16/31/8
f 18/8/4 19/32/4 20/33/4
f 18/8/4 20/33/4 16/34/4
f 21/35/2 22/36/2 12/24/2
f 21/35/2 12/24/2 11/23/2
f 23/37/3 17/38/3 15/39/3
f 23/37/3 24/40/3 17/38/3
f 16/34/4 20/33/4 10/22/4
f 16/34/4 10/22/4 9/21/4
f 13/31/8 24/31/8 23/31/8
f 13/31/8 12/31/8 24/31/8
f 20/41/1 11/42/1 14/28/1
f 20/41/1 14/28/1 10/27/1
f 19/43/4 25/44/4 26/45/4
f 19/43/4 26/45/4 27/46/4
f 28/47/9 30/48/9 29/49/9
f 28/47/9 31/50/9 30/48/9
f 17/31/8 18/31/8 16/31/8
f 17/31/8 29/31/8 18/31/8
f 19/51/10 21/52/10 11/53/10
f 19/51/10 11/53/10 20/54/10
f 24/40/11 29/49/11 17/38/11
f 24/40/11 28/47/11 29/49/11
f 12/31/8 28/31/8 24/31/8
f 12/31/8 22/31/8 28/31/8
f 32/31/8 33/31/8 25/31/8
f 32/31/8 25/31/8 34/31/8
f 35/55/6 34/56/6 36/57/6
f 35/55/6 37/58/6 34/56/6
f 18/59/4 36/60/4 34/61/4
f 18/59/4 38/62/4 36/60/4
f 29/31/8 38/31/8 18/31/8
f 29/31/8 30/31/8 38/31/8
f 39/31/8 37/31/8 22/31/8
f 39/31/8 22/31/8 21/31/8
f 34/31/8 25/31/8 19/31/8
f 34/31/8 19/31/8 18/31/8
f 30/31/8 36/31/8 38/31/8
f 30/31/8 40/31/8 36/31/8
f 41/31/8 36/31/8 40/31/8
f 41/31/8 35/31/8 36/31/8
f 31/63/12 40/64/12 30/65/12
f 31/63/12 41/66/12 40/64/12
f 42/31/8 41/31/8 31/31/8
f 42/31/8 35/31/8 41/31/8
f 22/31/8 31/31/8 28/31/8
f 22/31/8 42/31/8 31/31/8
f 37/67/2 42/68/2 22/69/2
f 37/67/2 35/70/2 42/68/2
f 26/71/12 43/72/12 44/73/12
f 26/71/12 44/73/12 27/74/12
f 25/75/7 39/76/7 43/77/7
f 25/75/7 43/77/7 26/78/7
f 27/79/13 44/80/13 21/81/13
f 27/79/13 21/81/13 19/82/13
f 39/83/2 21/84/2 44/85/2
f 39/83/2 44/85/2 43/86/2
f 45/87/14 46/88/14 33/89/14
f 45/87/14 33/89/14 32/90/14
f 33/91/12 47/92/12 39/93/12
f 33/91/12 39/93/12 25/94/12
f 47/31/8 48/31/8 37/31/8
f 47/31/8 37/31/8 39/31/8
f 48/95/12 32/96/12 34/97/12
f 48/95/12 34/97/12 37/98/12
f 49/99/7 51/100/7 50/101/7
f 49/99/7 52/102/7 51/100/7
f 46/103/1 53/104/1 47/105/1
f 46/103/1 47/105/1 33/71/1
f 53/106/15 54/107/15 48/108/15
f 53/106/15 48/108/15 47/109/15
f 54/110/3 45/111/3 32/112/3
f 54/110/3 32/112/3 48/113/3
f 55/114/7 56/114/7 54/107/7
f 55/114/16 54/107/16 53/106/16
f 57/31/8 56/31/8 55/31/8
f 57/31/8 55/31/8 58/31/8
f 52/31/8 57/31/8 51/31/8
f 52/31/8 56/31/8 57/31/8
f 57/115/6 58/115/6 46/88/6
f 57/115/17 46/88/17 45/87/17
f 54/31/7 52/31/7 49/31/7
f 54/31/8 56/31/8 52/31/8
f 58/116/6 55/117/6 53/104/6
f 58/116/6 53/104/6 46/103/6
f 50/31/7 57/31/7 45/31/7
f 50/31/7 51/31/7 57/31/7
