# Blender v2.64 (sub 0) OBJ File: ''
# www.blender.org
mtllib cantop.mtl
o Cube.001
v -1.000000 1.000000 1.000000
v -1.000000 1.000000 -1.000000
v 0.000000 0.000000 -1.000000
v 0.000000 0.000000 1.000000
v -1.000000 1.100000 1.000000
v -1.000000 1.100000 -1.000000
v 0.000000 1.100000 -1.000000
v 0.000000 1.100000 1.000000
v 1.000000 1.000000 -1.000000
v 1.000000 1.000000 1.000000
v 1.000000 1.100000 -1.000000
v 1.000000 1.100000 1.000000
v -0.800000 1.300000 1.000000
v -0.800000 1.300000 -1.000000
v 0.000000 1.300000 -1.000000
v 0.000000 1.300000 1.000000
v 0.800000 1.300000 -1.000000
v 0.800000 1.300000 1.000000
v -0.800000 1.900000 1.000000
v -0.800000 1.900000 -1.000000
v 0.000000 1.900000 -1.000000
v 0.000000 1.900000 1.000000
v 0.800000 1.900000 -1.000000
v 0.800000 1.900000 1.000000
v -1.000000 2.100000 1.000000
v -1.000000 2.100000 -1.000000
v 0.000000 2.100000 -1.000000
v 0.000000 2.100000 1.000000
v 1.000000 2.100000 -1.000000
v 1.000000 2.100000 1.000000
v -1.000000 2.300000 1.000000
v -1.000000 2.300000 -1.000000
v 0.000000 2.300000 -1.000000
v 0.000000 2.300000 1.000000
v 1.000000 2.300000 -1.000000
v 1.000000 2.300000 1.000000
v -0.800000 2.500000 1.000000
v -0.800000 2.500000 -1.000000
v 0.000000 2.500000 -1.000000
v 0.000000 2.500000 1.000000
v 0.800000 2.500000 -1.000000
v 0.800000 2.500000 1.000000
v -1.000000 2.700000 1.000000
v -1.000000 2.700000 -1.000000
v 0.000000 2.700000 -1.000000
v 0.000000 2.700000 1.000000
v 1.000000 2.700000 -1.000000
v 1.000000 2.700000 1.000000
v -1.000000 3.900000 1.000000
v -1.000000 3.900000 -1.000000
v 0.000000 3.900000 -1.000000
v 0.000000 3.900000 1.000000
v 1.000000 3.900000 -1.000000
v 1.000000 3.900000 1.000000
v -0.500000 4.900000 1.000000
v -0.500000 4.900000 -1.000000
v 0.000000 4.900000 -1.000000
v 0.000000 4.900000 1.000000
v 0.500000 4.900000 -1.000000
v 0.500000 4.900000 1.000000
v -0.500000 8.300000 1.000000
v -0.500000 8.300000 -1.000000
v 0.000000 8.300000 -1.000000
v 0.000000 8.300000 1.000000
v 0.500000 8.300000 -1.000000
v 0.500000 8.300000 1.000000
v -1.000000 8.300000 1.000000
v -1.000000 8.300000 -1.000000
v 0.000000 8.300000 -1.000000
v 0.000000 8.300000 1.000000
v 1.000000 8.300000 -1.000000
v 1.000000 8.300000 1.000000
v -1.000000 8.600000 1.000000
v -1.000000 8.600000 -1.000000
v 0.000000 8.600000 -1.000000
v 0.000000 8.600000 1.000000
v 1.000000 8.600000 -1.000000
v 1.000000 8.600000 1.000000
v -0.400000 8.600000 1.000000
v -0.400000 8.600000 -1.000000
v 0.000000 8.600000 -1.000000
v 0.000000 8.600000 1.000000
v 0.400000 8.600000 -1.000000
v 0.400000 8.600000 1.000000
v -0.500000 8.799999 1.000000
v -0.500000 8.799999 -1.000000
v 0.000000 8.799999 -1.000000
v 0.000000 8.799999 1.000000
v 0.500000 8.799999 -1.000000
v 0.500000 8.799999 1.000000
vt 0.513846 0.586089
vt 0.514487 0.795063
vt 0.504038 0.795096
vt 0.503397 0.586121
vt 0.209872 0.115256
vt 0.105385 0.114936
vt 0.105737 0.000000
vt 0.209904 0.104808
vt 0.817500 0.585769
vt 0.818141 0.794743
vt 0.713654 0.795063
vt 0.713013 0.586089
vt 0.419808 0.762595
vt 0.315641 0.867403
vt 0.315288 0.752467
vt 0.419775 0.752147
vt 0.618333 0.585769
vt 0.618974 0.794743
vt 0.483141 0.795160
vt 0.482500 0.586185
vt 0.703205 0.795096
vt 0.702564 0.586121
vt 0.000898 0.114615
vt 0.000930 0.104167
vt 0.315224 0.731570
vt 0.398814 0.731313
vt 0.210833 0.763237
vt 0.210801 0.752788
vt 0.231635 0.731826
vt 0.231442 0.669134
vt 0.315032 0.668878
vt 0.619615 0.795352
vt 0.618974 0.586378
vt 0.681666 0.586185
vt 0.682308 0.795160
vt 0.188910 0.136090
vt 0.105321 0.135833
vt 0.021731 0.135577
vt 0.210481 0.648301
vt 0.314968 0.647980
vt 0.839679 1.004037
vt 0.840320 0.795063
vt 0.861218 0.795128
vt 0.860577 1.004102
vt 0.188718 0.198782
vt 0.105128 0.198525
vt 0.398622 0.668621
vt 0.021539 0.198269
vt 0.420449 0.795352
vt 0.419808 0.586378
vt 0.979103 0.376538
vt 0.978462 0.167564
vt 0.999359 0.167500
vt 1.000000 0.376474
vt 0.944807 0.794807
vt 0.944166 0.585833
vt 0.965064 0.585769
vt 0.965705 0.794743
vt 0.209551 0.219743
vt 0.105064 0.219423
vt 0.419455 0.647660
vt 0.000577 0.219102
vt 0.818782 1.004102
vt 0.818141 0.795127
vt 0.839038 0.795063
vt 0.923910 0.794871
vt 0.923269 0.585897
vt 0.104936 0.261218
vt 0.021346 0.260961
vt 0.000513 0.240000
vt 0.105000 0.240320
vt 0.210417 0.627403
vt 0.314904 0.627083
vt 0.209487 0.240641
vt 0.419391 0.626762
vt 0.902372 1.004102
vt 0.901731 0.795127
vt 0.922628 0.795063
vt 0.923269 1.004037
vt 0.104872 0.282115
vt 0.000385 0.281795
vt 0.958205 0.376602
vt 0.957564 0.167628
vt 0.231250 0.606442
vt 0.314840 0.606185
vt 0.188526 0.261474
vt 0.398429 0.605929
vt 0.629166 0.125384
vt 0.420192 0.126026
vt 0.419808 0.000641
vt 0.628782 0.000000
vt 0.104487 0.407500
vt 0.000000 0.407179
vt 0.880192 1.004037
vt 0.880833 0.795063
vt 0.901731 0.795128
vt 0.901089 1.004102
vt 0.210288 0.585609
vt 0.314776 0.585288
vt 0.209359 0.282436
vt 0.419263 0.584967
vt 0.104167 0.511987
vt 0.051923 0.511826
vt 0.314070 0.355416
vt 0.366314 0.355256
vt 0.418878 0.459583
vt 0.314391 0.459904
vt 0.839936 0.125384
vt 0.630962 0.126026
vt 0.630577 0.000641
vt 0.839551 0.000000
vt 0.209904 0.460224
vt 0.208974 0.407820
vt 0.103077 0.867243
vt 0.050833 0.867082
vt 0.312980 0.000160
vt 0.365224 0.000000
vt 0.629487 0.229872
vt 0.420513 0.230513
vt 0.840256 0.229872
vt 0.631282 0.230513
vt 0.261827 0.355577
vt 0.156410 0.512147
vt 0.000000 0.000000
vt 0.904679 0.376442
vt 0.905321 0.167468
vt 0.956923 0.376602
vt 0.630577 0.585128
vt 0.421603 0.585769
vt 0.841346 0.585128
vt 0.632372 0.585769
vt 0.260737 0.000321
vt 0.155320 0.867403
vt 0.954935 0.899454
vt 0.954615 1.003941
vt 0.923269 1.003845
vt 0.923589 0.899358
vt 0.966346 0.794839
vt 0.965705 0.585865
vt 0.997051 0.585769
vt 0.997692 0.794743
vt 0.905321 0.585769
vt 0.904679 0.376794
vt 0.956923 0.376634
vt 0.957564 0.585608
vt 0.841987 0.209166
vt 0.841346 0.000192
vt 0.904038 0.000000
vt 0.904679 0.208974
vt 0.966346 1.003909
vt 0.966025 0.899422
vt 0.997371 0.899326
vt 0.997692 1.003813
vt 0.955256 0.794967
vt 0.965705 0.794935
vt 0.997051 0.794839
vt 0.958205 0.585769
vt 0.957564 0.376794
vt 0.988910 0.376698
vt 0.989551 0.585672
vt 0.862404 0.324294
vt 0.862532 0.366089
vt 0.841667 0.376602
vt 0.841506 0.324359
vt 0.619615 1.004390
vt 0.618974 0.795416
vt 0.639872 0.795352
vt 0.640513 1.004326
vt 0.904038 0.376602
vt 0.904679 0.585576
vt 0.841987 0.585769
vt 0.841346 0.376794
vt 0.870384 0.585929
vt 0.871026 0.794903
vt 0.818782 0.795063
vt 0.818141 0.586089
vt 0.922628 0.585769
vt 0.923269 0.794743
vt 0.862532 0.376602
vt 0.862692 0.324359
vt 0.883590 0.324423
vt 0.883461 0.366218
vt 0.841346 0.272115
vt 0.862275 0.282500
vt 0.862853 0.272115
vt 0.883718 0.282628
vt 0.797243 1.004390
vt 0.796602 0.795416
vt 0.817500 0.795352
vt 0.818141 1.004326
vn -1.000000 -0.000000 0.000000
vn 0.000000 0.000000 -1.000000
vn 0.707107 -0.707107 0.000000
vn 0.000000 0.000000 1.000000
vn -0.707107 -0.707107 0.000000
vn -0.707107 0.707107 0.000000
vn 1.000000 -0.000000 0.000000
vn 0.707107 0.707107 0.000000
vn 0.707106 -0.707107 0.000000
vn -0.707106 -0.707107 0.000000
vn -0.894427 0.447214 0.000000
vn 0.894427 0.447214 0.000000
vn 0.000000 0.000000 0.000000
vn 0.000000 -1.000000 0.000000
vn 0.000000 1.000000 0.000000
vn 0.894426 -0.447216 0.000000
vn -0.894426 -0.447216 0.000000
usemtl Material.001
s off
f 2/1/1 1/2/1 5/3/1
f 2/1/1 5/3/1 6/4/1
f 6/5/2 7/6/2 3/7/2
f 6/5/2 3/7/2 2/8/2
f 4/9/3 3/10/3 9/11/3
f 4/9/3 9/11/3 10/12/3
f 1/13/4 4/14/4 8/15/4
f 1/13/4 8/15/4 5/16/4
f 1/2/5 2/1/5 3/17/5
f 1/2/5 3/17/5 4/18/5
f 13/19/6 14/20/6 6/4/6
f 13/19/6 6/4/6 5/3/6
f 11/21/7 12/22/7 10/12/7
f 11/21/7 10/12/7 9/11/7
f 11/23/2 9/24/2 3/7/2
f 11/23/2 3/7/2 7/6/2
f 16/25/4 13/26/4 5/16/4
f 16/25/4 5/16/4 8/15/4
f 8/15/4 4/14/4 10/27/4
f 8/15/4 10/27/4 12/28/4
f 16/25/4 18/29/4 24/30/4
f 16/25/4 24/30/4 22/31/4
f 23/32/7 24/33/7 18/34/7
f 23/32/7 18/34/7 17/35/7
f 8/15/4 12/28/4 18/29/4
f 8/15/4 18/29/4 16/25/4
f 14/36/2 15/37/2 7/6/2
f 14/36/2 7/6/2 6/5/2
f 15/37/2 17/38/2 11/23/2
f 15/37/2 11/23/2 7/6/2
f 17/35/8 18/34/8 12/22/8
f 17/35/8 12/22/8 11/21/8
f 22/31/4 24/30/4 30/39/4
f 22/31/4 30/39/4 28/40/4
f 29/41/9 30/42/9 24/43/9
f 29/41/9 24/43/9 23/44/9
f 20/45/2 21/46/2 15/37/2
f 20/45/2 15/37/2 14/36/2
f 22/31/4 19/47/4 13/26/4
f 22/31/4 13/26/4 16/25/4
f 21/46/2 23/48/2 17/38/2
f 21/46/2 17/38/2 15/37/2
f 19/49/1 20/50/1 14/20/1
f 19/49/1 14/20/1 13/19/1
f 35/51/7 36/52/7 30/53/7
f 35/51/7 30/53/7 29/54/7
f 31/55/1 32/56/1 26/57/1
f 31/55/1 26/57/1 25/58/1
f 26/59/2 27/60/2 21/46/2
f 26/59/2 21/46/2 20/45/2
f 28/40/4 25/61/4 19/47/4
f 28/40/4 19/47/4 22/31/4
f 27/60/2 29/62/2 23/48/2
f 27/60/2 23/48/2 21/46/2
f 25/63/10 26/64/10 20/65/10
f 25/63/10 20/65/10 19/41/10
f 37/66/6 38/67/6 32/56/6
f 37/66/6 32/56/6 31/55/6
f 39/68/2 41/69/2 35/70/2
f 39/68/2 35/70/2 33/71/2
f 28/40/4 30/39/4 36/72/4
f 28/40/4 36/72/4 34/73/4
f 32/74/2 33/71/2 27/60/2
f 32/74/2 27/60/2 26/59/2
f 34/73/4 31/75/4 25/61/4
f 34/73/4 25/61/4 28/40/4
f 33/71/2 35/70/2 29/62/2
f 33/71/2 29/62/2 27/60/2
f 43/76/10 44/77/10 38/78/10
f 43/76/10 38/78/10 37/79/10
f 45/80/2 47/81/2 41/69/2
f 45/80/2 41/69/2 39/68/2
f 41/82/8 42/83/8 36/52/8
f 41/82/8 36/52/8 35/51/8
f 34/73/4 36/72/4 42/84/4
f 34/73/4 42/84/4 40/85/4
f 38/86/2 39/68/2 33/71/2
f 38/86/2 33/71/2 32/74/2
f 40/85/4 37/87/4 31/75/4
f 40/85/4 31/75/4 34/73/4
f 49/88/1 50/89/1 44/90/1
f 49/88/1 44/90/1 43/91/1
f 51/92/2 53/93/2 47/81/2
f 51/92/2 47/81/2 45/80/2
f 47/94/9 48/95/9 42/96/9
f 47/94/9 42/96/9 41/97/9
f 40/85/4 42/84/4 48/98/4
f 40/85/4 48/98/4 46/99/4
f 44/100/2 45/80/2 39/68/2
f 44/100/2 39/68/2 38/86/2
f 46/99/4 43/101/4 37/87/4
f 46/99/4 37/87/4 40/85/4
f 57/102/2 59/103/2 53/93/2
f 57/102/2 53/93/2 51/92/2
f 58/104/4 55/105/4 49/106/4
f 58/104/4 49/106/4 52/107/4
f 53/108/7 54/109/7 48/110/7
f 53/108/7 48/110/7 47/111/7
f 46/99/4 48/98/4 54/112/4
f 46/99/4 54/112/4 52/107/4
f 50/113/2 51/92/2 45/80/2
f 50/113/2 45/80/2 44/100/2
f 52/107/4 49/106/4 43/101/4
f 52/107/4 43/101/4 46/99/4
f 63/114/2 65/115/2 59/103/2
f 63/114/2 59/103/2 57/102/2
f 64/116/4 61/117/4 55/105/4
f 64/116/4 55/105/4 58/104/4
f 55/118/11 56/119/11 50/89/11
f 55/118/11 50/89/11 49/88/11
f 59/120/12 60/121/12 54/109/12
f 59/120/12 54/109/12 53/108/12
f 52/107/4 54/112/4 60/122/4
f 52/107/4 60/122/4 58/104/4
f 56/123/2 57/102/2 51/92/2
f 56/123/2 51/92/2 50/113/2
f 64/124/13 66/124/13 72/124/13
f 64/124/13 72/124/13 70/124/13
f 71/125/14 72/126/14 66/83/14
f 71/125/14 66/83/14 65/127/14
f 61/128/1 62/129/1 56/119/1
f 61/128/1 56/119/1 55/118/1
f 65/130/7 66/131/7 60/121/7
f 65/130/7 60/121/7 59/120/7
f 58/104/4 60/122/4 66/132/4
f 58/104/4 66/132/4 64/116/4
f 62/133/2 63/114/2 57/102/2
f 62/133/2 57/102/2 56/123/2
f 70/134/4 72/135/4 78/136/4
f 70/134/4 78/136/4 76/137/4
f 77/138/7 78/139/7 72/140/7
f 77/138/7 72/140/7 71/141/7
f 68/124/13 69/124/13 63/124/13
f 68/124/13 63/124/13 62/124/13
f 70/124/13 67/124/13 61/124/13
f 70/124/13 61/124/13 64/124/13
f 69/124/13 71/124/13 65/124/13
f 69/124/13 65/124/13 63/124/13
f 67/142/14 68/143/14 62/144/14
f 67/142/14 62/144/14 61/145/14
f 76/124/13 78/124/13 84/124/13
f 76/124/13 84/124/13 82/124/13
f 83/146/15 84/147/15 78/148/15
f 83/146/15 78/148/15 77/149/15
f 74/150/2 75/151/2 69/152/2
f 74/150/2 69/152/2 68/153/2
f 76/137/4 73/66/4 67/154/4
f 76/137/4 67/154/4 70/134/4
f 75/151/2 77/155/2 71/156/2
f 75/151/2 71/156/2 69/152/2
f 73/157/1 74/158/1 68/159/1
f 73/157/1 68/159/1 67/160/1
f 82/161/4 84/162/4 90/163/4
f 82/161/4 90/163/4 88/164/4
f 89/165/16 90/166/16 84/167/16
f 89/165/16 84/167/16 83/168/16
f 80/124/13 81/124/13 75/124/13
f 80/124/13 75/124/13 74/124/13
f 82/124/13 79/124/13 73/124/13
f 82/124/13 73/124/13 76/124/13
f 81/124/13 83/124/13 77/124/13
f 81/124/13 77/124/13 75/124/13
f 79/169/15 80/170/15 74/171/15
f 79/169/15 74/171/15 73/172/15
f 88/173/15 87/174/15 86/175/15
f 88/173/15 86/175/15 85/176/15
f 87/174/15 88/173/15 90/177/15
f 87/174/15 90/177/15 89/178/15
f 86/179/2 87/180/2 81/181/2
f 86/179/2 81/181/2 80/182/2
f 88/164/4 85/183/4 79/184/4
f 88/164/4 79/184/4 82/161/4
f 87/180/2 89/185/2 83/186/2
f 87/180/2 83/186/2 81/181/2
f 85/187/17 86/188/17 80/189/17
f 85/187/17 80/189/17 79/190/17
