# Blender v2.64 (sub 0) OBJ File: ''
# www.blender.org
mtllib cty.mtl
o Cube
v -3.800000 -0.600000 -1.000000
v -3.800000 -0.600000 1.000000
v -4.800000 -0.600000 1.000000
v -4.799999 -0.600000 -1.000000
v -3.799999 1.400000 -0.999999
v -4.800000 0.400000 -1.000000
v -4.800000 0.400000 1.000000
v -3.800001 1.400000 1.000001
v -2.800001 0.400000 1.000001
v -2.799999 0.400000 -0.999999
v -2.800001 -0.300000 1.000001
v -2.799999 -0.300000 -0.999999
v -2.800000 -0.600000 1.000000
v -2.800000 -0.600000 -1.000000
v -2.400001 -0.300000 1.000001
v -2.399999 -0.300000 -0.999999
v -2.400001 0.700000 1.000001
v -2.399999 0.700000 -0.999999
v -2.400000 -0.600000 -0.999999
v -2.400000 -0.600000 1.000000
v -1.900001 1.900001 1.000001
v -1.899999 1.900001 -0.999999
v -1.700001 1.900001 1.000001
v -1.700000 1.900001 -0.999999
v -1.900000 -0.599999 -0.999999
v -1.900000 -0.599999 1.000001
v -1.300000 0.700001 1.000002
v -1.299999 0.700001 -0.999998
v -1.700000 -0.599999 -0.999999
v -1.700000 -0.599999 1.000001
v -1.300000 -0.499999 1.000002
v -1.299999 -0.499999 -0.999998
v -1.300000 -0.599999 1.000001
v -1.300000 -0.599999 -0.999999
v -0.900000 -0.499999 1.000002
v -0.899999 -0.499999 -0.999998
v -0.900000 0.800001 1.000002
v -0.899999 0.800001 -0.999998
v -0.900000 -0.599999 -0.999999
v -0.900000 -0.599999 1.000001
v -0.500000 1.200001 1.000002
v -0.500000 1.200001 -0.999997
v 0.999999 1.200001 1.000003
v 1.000000 1.200001 -0.999997
v -0.500000 -0.599999 -0.999998
v -0.500000 -0.599999 1.000002
v 1.399999 0.800001 1.000003
v 1.400000 0.800001 -0.999997
v 1.000000 -0.599999 1.000002
v 1.000000 -0.599999 -0.999998
v 1.399999 -0.299999 1.000003
v 1.400000 -0.299999 -0.999997
v 1.400000 -0.599999 -0.999997
v 1.400000 -0.599999 1.000002
v 1.700000 -0.299999 1.000003
v 1.700001 -0.299999 -0.999997
v 1.700000 0.300002 1.000003
v 1.700001 0.300002 -0.999997
v 1.700001 -0.599999 -0.999997
v 1.700001 -0.599999 1.000003
v 2.100000 0.700002 1.000003
v 2.100001 0.700002 -0.999997
v 2.500000 0.300002 1.000003
v 2.500001 0.300002 -0.999996
v 2.100001 -0.599998 1.000003
v 2.100001 -0.599998 -0.999997
v 2.500000 -0.499997 1.000004
v 2.500001 -0.499997 -0.999996
v 2.500001 -0.599998 -0.999997
v 2.500001 -0.599998 1.000003
v 2.900000 -0.499995 1.000004
v 2.900001 -0.499995 -0.999996
v 2.900000 0.900006 1.000004
v 2.900001 0.900006 -0.999996
v 2.900001 -0.599995 -0.999997
v 2.900001 -0.599995 1.000003
v 3.400000 1.400007 1.000004
v 3.400001 1.400007 -0.999996
v 3.900000 0.900007 1.000004
v 3.900001 0.900007 -0.999996
v 3.400001 -0.599993 1.000003
v 3.400001 -0.599993 -0.999997
v 3.900001 -0.599993 -0.999996
v 3.900001 -0.599993 1.000003
vt 0.189116 0.094413
vt 0.000290 0.094992
vt 0.000000 0.000579
vt 0.188826 0.000000
vt 0.562121 0.641866
vt 0.562427 0.542361
vt 0.751253 0.542940
vt 0.750948 0.642445
vt 0.581690 0.255170
vt 0.770516 0.255749
vt 0.770214 0.354357
vt 0.581388 0.353777
vt 0.514422 0.170745
vt 0.380901 0.037224
vt 0.514422 0.037224
vt 0.581182 0.103985
vt 0.751542 0.448672
vt 0.562716 0.448093
vt 0.191346 0.237506
vt 0.324867 0.371027
vt 0.258106 0.437787
vt 0.191346 0.371027
vt 0.770011 0.420378
vt 0.581185 0.419798
vt 0.447661 0.237506
vt 0.380901 0.170745
vt 0.189406 0.188826
vt 0.000579 0.189406
vt 0.324867 0.237506
vt 0.391627 0.304266
vt 1.000000 0.642561
vt 0.999421 0.831387
vt 0.961656 0.831271
vt 0.962235 0.642445
vt 0.581098 0.448093
vt 0.581098 0.447514
vt 0.392272 0.448093
vt 0.391983 0.353825
vt 0.580809 0.353246
vt 0.287773 0.655459
vt 0.287686 0.683783
vt 0.249921 0.683667
vt 0.391627 0.238085
vt 0.580454 0.237506
vt 0.392004 0.665649
vt 0.391917 0.693972
vt 0.391627 0.788386
vt 0.210808 0.626759
vt 0.210229 0.815585
vt 0.191346 0.815527
vt 0.191925 0.626701
vt 0.334980 0.655604
vt 0.334255 0.891637
vt 0.287396 0.778196
vt 0.192075 0.000000
vt 0.380901 0.000579
vt 0.380548 0.115475
vt 0.191722 0.114896
vt 0.189724 0.292681
vt 0.000898 0.293260
vt 0.000840 0.274377
vt 0.189666 0.273798
vt 0.818177 0.237361
vt 0.817453 0.001328
vt 0.836335 0.001270
vt 0.837059 0.237303
vt 0.353862 0.655662
vt 0.353138 0.891695
vt 0.380201 0.228654
vt 0.191375 0.228074
vt 0.391627 0.655778
vt 0.391251 0.778515
vt 0.189840 0.330446
vt 0.001014 0.331025
vt 0.874448 0.114450
vt 0.874825 0.237187
vt 0.961656 0.642561
vt 0.961076 0.831387
vt 0.923311 0.831271
vt 0.923890 0.642445
vt 0.913884 0.642474
vt 0.914464 0.831300
vt 0.791915 0.831676
vt 0.791336 0.642850
vt 0.619179 0.046120
vt 0.609738 0.046149
vt 0.609622 0.008384
vt 0.752114 0.831798
vt 0.751534 0.642972
vt 0.923311 0.642445
vt 0.893741 0.453619
vt 0.893162 0.642445
vt 0.751542 0.642010
vt 0.752121 0.453184
vt 0.391077 0.475553
vt 0.221133 0.476074
vt 0.258783 0.438193
vt 0.561542 0.665649
vt 0.562121 0.854475
vt 0.522678 0.854596
vt 0.522099 0.665770
vt 0.391512 0.617172
vt 0.221568 0.617694
vt 0.190506 0.547596
vt 0.001680 0.548176
vt 0.001245 0.406556
vt 0.190072 0.405977
vt 0.562006 0.627478
vt 0.392062 0.627999
vt 0.391627 0.486379
vt 0.561571 0.485858
vt 0.418931 0.854914
vt 0.418352 0.666088
vt 0.190622 0.585362
vt 0.001796 0.585941
vt 0.429277 0.448498
vt 0.561455 0.448093
vt 0.391627 0.654938
vt 0.259449 0.655343
vt 0.220249 0.437874
vt 0.219670 0.626701
vt 0.191346 0.626614
vt 0.191925 0.437787
vt 0.000000 0.000000
vt 0.971187 0.048384
vt 0.971767 0.237210
vt 0.915206 0.237384
vt 0.914627 0.048557
vt 0.779945 0.831885
vt 0.779858 0.860209
vt 0.751534 0.860122
vt 0.875404 0.237506
vt 0.874825 0.048679
vt 0.894844 0.259267
vt 0.894264 0.448093
vt 0.854821 0.447972
vt 0.855400 0.259146
vt 0.817711 0.832001
vt 0.817334 0.954738
vt 0.779685 0.916857
vt 0.779369 0.447740
vt 0.779948 0.258914
vt 0.190940 0.689216
vt 0.002114 0.689795
vt 0.001998 0.652030
vt 0.190825 0.651451
vt 0.164642 0.908763
vt 0.077853 0.821974
vt 0.131261 0.821974
vt 0.191346 0.882058
vt 0.855476 0.832117
vt 0.855215 0.917089
vt 0.249921 0.655459
vt 0.249342 0.844285
vt 0.211576 0.844169
vt 0.212155 0.655343
vt 0.770516 0.258885
vt 0.751505 0.824172
vt 0.562679 0.824752
vt 0.562274 0.692777
vt 0.751100 0.692197
vt 0.647850 0.046120
vt 0.638409 0.046149
vt 0.638293 0.008384
vt 0.562121 0.643024
vt 0.751534 0.833599
vt 0.770594 0.236926
vt 0.581767 0.237506
vt 0.581616 0.188202
vt 0.770443 0.187623
vt 0.942484 0.447948
vt 0.941905 0.259122
vt 0.989257 0.306184
vt 0.770009 0.046149
vt 0.581182 0.046729
vt 0.191346 0.821395
vt 0.002520 0.821974
vt 0.002375 0.774767
vt 0.191201 0.774188
vt 0.941382 0.642300
vt 0.940803 0.453474
vt 0.988154 0.500535
vt 0.988589 0.642155
vt 0.895278 0.448093
vt 0.894844 0.306473
vt 0.211502 0.626701
vt 0.211415 0.655025
vt 0.211213 0.721114
vt 0.189521 0.226592
vt 0.000695 0.227171
vt 0.609622 0.046062
vt 0.581298 0.046149
vt 0.581182 0.008384
vt 0.609506 0.008297
vt 0.250008 0.655343
vt 0.770970 0.237506
vt 0.770594 0.114769
vt 0.418352 0.665649
vt 0.418323 0.675075
vt 0.417976 0.788197
vt 0.628736 0.046120
vt 0.619295 0.046149
vt 0.619179 0.008384
vt 0.628621 0.008355
vt 0.619063 0.008355
vt 0.189956 0.368211
vt 0.001130 0.368791
vt 0.210808 0.626701
vt 0.211213 0.758742
vt 0.210836 0.636132
vt 0.562121 0.665243
vt 0.429943 0.665649
vt 0.390961 0.437787
vt 0.220655 0.437787
vt 0.220568 0.466111
vt 0.220249 0.569966
vt 0.190709 0.613686
vt 0.001882 0.614265
vt 0.409312 0.028324
vt 0.380988 0.028411
vt 0.380901 0.000087
vt 0.409225 0.000000
vt 0.751621 0.831798
vt 0.137937 0.935467
vt 0.077853 0.875382
vt 0.220655 0.654807
vt 0.220626 0.645380
vt 0.220394 0.569966
vt 0.191056 0.726982
vt 0.002230 0.727561
vt 0.638178 0.046149
vt 0.628852 0.008355
vt 0.647735 0.008355
vt 0.220700 0.437787
vt 0.221133 0.579261
vt 0.220728 0.447219
vt 0.989691 0.447803
vt 0.894176 0.642445
vt 0.893741 0.500825
vn 0.000000 -1.000000 0.000000
vn -0.707106 0.707107 -0.000000
vn -0.707107 0.707107 -0.000001
vn 0.707107 0.707107 0.000001
vn -0.000000 -0.000000 1.000000
vn -1.000000 0.000000 0.000000
vn -1.000000 -0.000001 -0.000000
vn 0.000000 0.000000 -1.000000
vn 0.000001 -0.000000 -1.000000
vn 1.000000 -0.000000 0.000001
vn -0.000001 -0.000001 1.000000
vn 0.000000 0.000001 -1.000000
vn 0.000000 1.000000 -0.000000
vn 0.716389 -0.000000 -0.697701
vn -1.000000 -0.000000 -0.000001
vn 0.000000 -0.000003 1.000000
vn -0.923077 0.384615 -0.000001
vn 0.034979 0.000000 0.999388
vn 0.948683 0.316229 0.000000
vn 1.000000 -0.000000 0.000000
vn -0.000005 -0.000001 1.000000
vn 0.000002 -0.000000 -1.000000
vn 0.731527 -0.000000 -0.681812
vn 0.000000 -0.000011 1.000000
vn -0.707107 0.707107 -0.000000
vn -0.707108 0.707106 -0.000000
vn -0.731273 0.000000 0.682085
vn 0.707107 0.707107 0.000000
vn -0.000001 -0.000000 1.000000
vn 0.000003 -0.000000 -1.000000
vn -0.000005 1.000000 -0.000000
vn -0.707107 0.707106 -0.000000
vn 1.000000 0.000001 -0.000000
vn -0.707107 -0.000000 -0.707107
vn 0.000000 0.000003 -1.000000
vn 0.707107 -0.000000 0.707107
vn 0.000002 -1.000000 0.000000
vn -0.000002 -0.000001 1.000000
vn 0.000000 0.000010 -1.000000
vn 0.000002 0.000001 -1.000000
vn -0.000003 -0.000001 1.000000
vn -0.718857 -0.000000 -0.695158
vn -0.000003 -0.000003 1.000000
vn 0.000003 -1.000000 0.000000
vn -0.784635 -0.000001 -0.619958
vn 0.000007 -1.000000 0.000000
vn 0.750010 0.000000 0.661426
vn 0.000000 -0.000001 1.000000
vn 0.000004 -1.000000 0.000000
vn -0.000001 0.000001 -1.000000
usemtl Material.001
s off
f 1/1/1 2/2/1 3/3/1
f 1/1/1 3/3/1 4/4/1
f 5/5/2 6/6/2 7/7/2
f 5/5/3 7/7/3 8/8/3
f 5/9/4 8/10/4 9/11/4
f 5/9/4 9/11/4 10/12/4
f 2/13/5 8/14/5 7/15/5
f 2/13/5 7/15/5 3/16/5
f 3/17/6 7/7/6 6/6/6
f 3/17/7 6/6/7 4/18/7
f 5/19/8 1/20/8 4/21/8
f 5/19/9 4/21/9 6/22/9
f 10/12/10 9/11/10 11/23/10
f 10/12/10 11/23/10 12/24/10
f 13/25/11 9/26/11 8/14/11
f 13/25/5 8/14/5 2/13/5
f 2/2/1 1/1/1 14/27/1
f 2/2/1 14/27/1 13/28/1
f 1/20/8 5/19/8 10/29/8
f 1/20/12 10/29/12 14/30/12
f 12/31/13 11/32/13 15/33/13
f 12/31/13 15/33/13 16/34/13
f 14/35/14 10/12/14 12/24/14
f 16/36/15 15/37/15 17/38/15
f 16/36/15 17/38/15 18/39/15
f 20/40/16 15/41/16 11/42/16
f 18/39/17 17/38/17 21/43/17
f 18/39/17 21/43/17 22/44/17
f 19/45/18 16/46/18 18/47/18
f 22/48/13 21/49/13 23/50/13
f 22/48/13 23/50/13 24/51/13
f 26/52/5 21/53/5 17/54/5
f 24/55/19 23/56/19 27/57/19
f 24/55/19 27/57/19 28/58/19
f 29/59/1 30/60/1 26/61/1
f 29/59/1 26/61/1 25/62/1
f 25/63/8 22/64/8 24/65/8
f 25/63/8 24/65/8 29/66/8
f 30/67/5 23/68/5 21/53/5
f 30/67/5 21/53/5 26/52/5
f 28/58/20 27/57/20 31/69/20
f 28/58/20 31/69/20 32/70/20
f 33/71/21 27/72/21 23/68/21
f 33/71/5 23/68/5 30/67/5
f 34/73/1 33/74/1 30/60/1
f 34/73/1 30/60/1 29/59/1
f 29/66/22 24/65/22 28/75/22
f 29/66/12 28/75/12 34/76/12
f 32/77/13 31/78/13 35/79/13
f 32/77/13 35/79/13 36/80/13
f 34/19/23 28/58/23 32/70/23
f 36/81/6 35/82/6 37/83/6
f 36/81/6 37/83/6 38/84/6
f 40/85/24 35/86/24 31/87/24
f 38/84/25 37/83/25 41/88/25
f 38/84/26 41/88/26 42/89/26
f 39/90/27 36/81/27 38/84/27
f 42/91/13 41/92/13 43/93/13
f 42/91/13 43/93/13 44/94/13
f 46/95/5 41/96/5 37/97/5
f 44/98/28 43/99/28 47/100/28
f 44/98/28 47/100/28 48/101/28
f 49/102/29 43/103/29 41/96/29
f 49/102/5 41/96/5 46/95/5
f 50/104/1 49/105/1 46/106/1
f 50/104/1 46/106/1 45/107/1
f 45/108/8 42/109/8 44/110/8
f 45/108/8 44/110/8 50/111/8
f 48/101/20 47/100/20 51/112/20
f 48/101/20 51/112/20 52/113/20
f 53/114/1 54/115/1 49/105/1
f 53/114/1 49/105/1 50/104/1
f 50/111/9 44/110/9 48/116/9
f 50/111/22 48/116/22 53/117/22
f 54/118/11 47/119/11 43/103/11
f 54/118/5 43/103/5 49/102/5
f 52/120/13 51/121/13 55/122/13
f 52/120/13 55/122/13 56/123/13
f 53/124/6 48/124/6 52/124/6
f 56/125/6 55/126/6 57/127/6
f 56/125/6 57/127/6 58/128/6
f 60/129/5 55/130/5 51/131/5
f 58/128/25 57/127/25 61/132/25
f 58/128/25 61/132/25 62/133/25
f 59/124/20 56/124/20 58/124/20
f 62/134/28 61/135/28 63/136/28
f 62/134/28 63/136/28 64/137/28
f 65/138/5 61/139/5 57/140/5
f 64/137/20 63/136/20 67/141/20
f 64/137/20 67/141/20 68/142/20
f 69/143/1 70/144/1 65/145/1
f 69/143/1 65/145/1 66/146/1
f 66/147/30 62/148/30 64/149/30
f 66/147/12 64/149/12 69/150/12
f 70/151/5 63/152/5 61/139/5
f 70/151/5 61/139/5 65/138/5
f 68/153/31 67/154/31 71/155/31
f 68/153/31 71/155/31 72/156/31
f 69/157/20 64/137/20 68/142/20
f 72/158/6 71/159/6 73/160/6
f 72/158/6 73/160/6 74/161/6
f 76/162/24 71/163/24 67/164/24
f 74/161/26 73/160/26 77/165/26
f 74/161/32 77/165/32 78/8/32
f 75/166/6 72/158/6 74/161/6
f 78/167/28 77/168/28 79/169/28
f 78/167/28 79/169/28 80/170/28
f 81/171/5 77/172/5 73/173/5
f 83/174/20 80/170/20 79/169/20
f 83/174/33 79/169/33 84/175/33
f 83/176/1 84/177/1 81/178/1
f 83/176/1 81/178/1 82/179/1
f 82/180/9 78/181/9 80/182/9
f 82/180/22 80/182/22 83/183/22
f 84/184/11 79/185/11 77/172/11
f 84/184/5 77/172/5 81/171/5
f 13/186/34 11/187/34 9/188/34
f 19/189/1 20/190/1 13/28/1
f 19/189/1 13/28/1 14/27/1
f 14/191/35 12/192/35 16/193/35
f 14/191/30 16/193/30 19/194/30
f 20/40/16 11/42/16 13/195/16
f 20/40/36 17/54/36 15/41/36
f 25/62/37 26/61/37 20/190/37
f 25/62/37 20/190/37 19/189/37
f 19/196/8 18/197/8 22/64/8
f 19/196/8 22/64/8 25/63/8
f 26/52/38 17/54/38 20/40/38
f 33/198/6 31/199/6 27/200/6
f 34/201/39 32/202/39 36/203/39
f 34/201/39 36/203/39 39/204/39
f 40/85/24 31/87/24 33/205/24
f 39/206/1 40/207/1 33/74/1
f 39/206/1 33/74/1 34/73/1
f 40/208/20 37/209/20 35/210/20
f 45/107/1 46/106/1 40/207/1
f 45/107/1 40/207/1 39/206/1
f 39/211/40 38/212/40 42/109/40
f 39/211/30 42/109/30 45/108/30
f 46/95/41 37/97/41 40/213/41
f 54/214/42 51/215/42 47/216/42
f 59/217/1 60/218/1 54/115/1
f 59/217/1 54/115/1 53/114/1
f 53/219/8 52/220/8 56/221/8
f 53/219/8 56/221/8 59/222/8
f 60/129/43 51/131/43 54/223/43
f 60/129/5 57/140/5 55/130/5
f 65/138/5 57/140/5 60/129/5
f 66/146/44 65/145/44 60/218/44
f 66/146/44 60/218/44 59/217/44
f 59/224/8 58/225/8 62/148/8
f 59/224/8 62/148/8 66/147/8
f 70/226/45 67/227/45 63/228/45
f 75/229/46 76/230/46 70/144/46
f 75/229/46 70/144/46 69/143/46
f 69/231/39 68/201/39 72/232/39
f 69/231/39 72/232/39 75/164/39
f 76/162/24 67/164/24 70/233/24
f 76/234/47 73/235/47 71/236/47
f 81/171/48 73/173/48 76/237/48
f 82/179/49 81/178/49 76/230/49
f 82/179/49 76/230/49 75/229/49
f 75/238/50 74/239/50 78/181/50
f 75/238/8 78/181/8 82/180/8
