# Blender v2.64 (sub 0) OBJ File: ''
# www.blender.org
mtllib psy.mtl
o Icosphere
v 0.000000 -301.000000 0.000000
v 217.805801 -134.613083 158.243332
v -83.192787 -134.613174 256.045410
v -269.222290 -134.611893 0.000000
v -83.192787 -134.613174 -256.045410
v 217.805801 -134.613083 -158.243332
v 83.192787 134.613174 256.045410
v -217.805801 134.613083 158.243332
v -217.805801 134.613083 -158.243332
v 83.192787 134.613174 -256.045410
v 269.222290 134.611893 0.000000
v 0.000000 301.000000 0.000000
v 128.022125 -256.046906 93.012428
v 79.123512 -158.247055 243.512497
v -48.899124 -256.046967 150.498581
v 128.022125 -256.046906 -93.012428
v 256.045013 -158.246506 0.000000
v -207.144989 -158.246582 150.499069
v -158.244659 -256.046143 0.000000
v -207.144989 -158.246582 -150.499069
v -48.899124 -256.046967 -150.498581
v 79.123512 -158.247055 -243.512497
v 286.268433 0.000000 -93.012810
v 286.268433 0.000000 93.012810
v 176.923462 0.000000 243.514023
v 0.000000 0.000000 301.000000
v -176.923462 0.000000 243.514023
v -286.268433 0.000000 93.012810
v -286.268433 0.000000 -93.012810
v -176.923462 0.000000 -243.514023
v 0.000000 0.000000 -301.000000
v 176.923462 0.000000 -243.514023
v 207.144989 158.246582 150.499069
v -79.123512 158.247055 243.512497
v -256.045013 158.246506 0.000000
v -79.123512 158.247055 -243.512497
v 207.144989 158.246582 -150.499069
v 158.244659 256.046143 0.000000
v 48.899124 256.046967 150.498581
v -128.022125 256.046906 93.012428
v -128.022125 256.046906 -93.012428
v 48.899124 256.046967 -150.498581
vt 0.251850 0.499688
vt 0.327052 0.592301
vt 0.197905 0.615867
vt 0.132295 0.713648
vt 0.053841 0.615907
vt 0.333079 0.452012
vt 0.207655 0.388876
vt 0.124114 0.490144
vt 0.023678 0.718127
vt 0.444669 0.069219
vt 0.337945 0.120229
vt 0.406160 0.002359
vt 0.659331 0.193448
vt 0.558148 0.266236
vt 0.558297 0.120454
vt 0.918173 0.166048
vt 0.868424 0.284088
vt 0.790175 0.161087
vt 0.108977 0.069278
vt 0.096534 0.193301
vt 0.002359 0.120505
vt 0.801965 0.388876
vt 0.864030 0.488946
vt 0.720058 0.483746
vt 0.431972 0.193216
vt 0.668275 0.311396
vt 0.996646 0.255909
vt 0.222710 0.120281
vt 0.913779 0.606986
vt 0.865641 0.716145
vt 0.785780 0.611947
vt 0.664123 0.499755
vt 0.546762 0.490144
vt 0.607285 0.388914
vt 0.538581 0.713648
vt 0.472971 0.615867
vt 0.617035 0.615907
vt 0.109231 0.317298
vt 0.206905 0.384019
vt 0.070721 0.384158
vt 0.323893 0.193069
vt 0.333079 0.310999
vt 0.222859 0.266063
vt 0.542343 0.002499
vt 0.256780 0.718064
vt 0.006753 0.499755
vt 0.668517 0.075518
vt 0.870036 0.056890
vt 0.726065 0.062091
vt 0.673235 0.174896
vt 0.063591 0.388914
vt 0.997641 0.115492
vt 0.332837 0.075121
vt 0.206513 0.002359
vt 0.992251 0.517125
vt 0.926528 0.388923
vt 0.444415 0.317239
vt 0.806359 0.384158
vt 0.724453 0.289288
vt 0.002507 0.266288
vt 0.668840 0.598138
vt 0.337797 0.266012
vt 0.993247 0.657543
vt 0.647198 0.718127
vt 0.541951 0.384158
vt 0.930923 0.384111
vt 0.463221 0.388876
vt 0.419026 0.499688
vt 0.337797 0.452012
vt 0.721671 0.710944
vt 0.343824 0.592301
vt 0.414096 0.718064
vn -0.102381 0.943523 -0.315090
vn -0.700224 0.661699 -0.268032
vn 0.268034 0.943523 -0.194737
vn 0.268034 0.943523 0.194737
vn -0.102381 0.943523 0.315090
vn -0.904989 0.330385 -0.268031
vn -0.024747 0.330386 -0.943521
vn 0.889697 0.330385 -0.315095
vn 0.574602 0.330388 0.748783
vn -0.534576 0.330386 0.777865
vn -0.802609 0.125627 -0.583127
vn 0.306569 0.125629 -0.943521
vn 0.992077 0.125629 0.000000
vn 0.306569 0.125629 0.943521
vn -0.802609 0.125627 0.583127
vn -0.408946 -0.661698 -0.628425
vn 0.471300 -0.661699 -0.583122
vn 0.700224 -0.661699 0.268032
vn -0.038531 -0.661699 0.748779
vn -0.724042 -0.661695 0.194736
vn 0.038531 0.661699 -0.748779
vn -0.187594 0.794658 -0.577345
vn -0.471300 0.661699 -0.583122
vn -0.700224 0.661699 0.268032
vn -0.607060 0.794656 0.000000
vn -0.331305 0.943524 0.000000
vn 0.724042 0.661695 -0.194736
vn 0.491119 0.794657 -0.356821
vn 0.408946 0.661698 -0.628425
vn 0.408946 0.661698 0.628425
vn 0.491119 0.794657 0.356821
vn 0.724042 0.661695 0.194736
vn -0.471300 0.661699 0.583122
vn -0.187594 0.794658 0.577345
vn 0.038531 0.661699 0.748779
vn -0.992077 -0.125629 0.000000
vn -0.982246 0.187599 0.000000
vn -0.904989 0.330385 0.268031
vn -0.306569 -0.125629 -0.943521
vn -0.303531 0.187597 -0.934171
vn -0.534576 0.330386 -0.777865
vn 0.802609 -0.125627 -0.583127
vn 0.794655 0.187595 -0.577348
vn 0.574602 0.330388 -0.748783
vn 0.802609 -0.125627 0.583127
vn 0.794655 0.187595 0.577348
vn 0.889697 0.330385 0.315095
vn -0.306569 -0.125629 0.943521
vn -0.303531 0.187597 0.934171
vn -0.024747 0.330386 0.943521
vn -0.574602 -0.330388 -0.748783
vn -0.794655 -0.187595 -0.577348
vn -0.889697 -0.330385 -0.315095
vn 0.534576 -0.330386 -0.777865
vn 0.303531 -0.187597 -0.934171
vn 0.024747 -0.330386 -0.943521
vn 0.904989 -0.330385 0.268031
vn 0.982246 -0.187599 0.000000
vn 0.904989 -0.330385 -0.268031
vn 0.024747 -0.330386 0.943521
vn 0.303531 -0.187597 0.934171
vn 0.534576 -0.330386 0.777865
vn -0.889697 -0.330385 0.315095
vn -0.794655 -0.187595 0.577348
vn -0.574602 -0.330388 0.748783
vn -0.268034 -0.943523 -0.194737
vn -0.491119 -0.794657 -0.356821
vn -0.724042 -0.661695 -0.194736
vn 0.102381 -0.943523 -0.315090
vn 0.187594 -0.794658 -0.577345
vn -0.038531 -0.661699 -0.748779
vn 0.331305 -0.943524 0.000000
vn 0.607060 -0.794656 0.000000
vn 0.700224 -0.661699 -0.268032
vn 0.102381 -0.943523 0.315090
vn 0.187594 -0.794658 0.577345
vn 0.471300 -0.661699 0.583122
vn -0.268034 -0.943523 0.194737
vn -0.491119 -0.794657 0.356821
vn -0.408946 -0.661698 0.628425
usemtl Material.001
s off
f 1/1/1 15/2/1 13/3/1
f 2/4/2 17/5/2 13/3/2
f 1/1/3 19/6/3 15/2/3
f 1/1/4 21/7/4 19/6/4
f 1/1/5 16/8/5 21/7/5
f 2/4/6 24/9/6 17/5/6
f 3/10/7 26/11/7 14/12/7
f 4/13/8 28/14/8 18/15/8
f 5/16/9 30/17/9 20/18/9
f 6/19/10 32/20/10 22/21/10
f 2/22/11 25/23/11 24/24/11
f 3/10/12 27/25/12 26/11/12
f 4/13/13 29/26/13 28/14/13
f 5/16/14 31/27/14 30/17/14
f 6/19/15 23/28/15 32/20/15
f 7/29/16 39/30/16 33/31/16
f 8/32/17 40/33/17 34/34/17
f 9/35/18 41/36/18 35/37/18
f 10/38/19 42/39/19 36/40/19
f 11/41/20 38/42/20 37/43/20
f 15/44/21 3/10/21 14/12/21
f 15/2/22 14/45/22 13/3/22
f 13/3/23 14/45/23 2/4/23
f 17/5/24 6/46/24 16/8/24
f 17/5/25 16/8/25 13/3/25
f 16/8/26 1/1/26 13/3/26
f 19/47/27 4/13/27 18/15/27
f 19/47/28 18/15/28 15/44/28
f 15/44/29 18/15/29 3/10/29
f 21/48/30 5/16/30 20/18/30
f 21/48/31 20/18/31 19/49/31
f 19/49/32 20/18/32 4/50/32
f 16/8/33 6/46/33 22/51/33
f 16/8/34 22/51/34 21/7/34
f 21/48/35 22/52/35 5/16/35
f 24/53/36 11/41/36 23/28/36
f 24/53/37 23/28/37 17/54/37
f 17/54/38 23/28/38 6/19/38
f 26/55/39 7/29/39 25/23/39
f 26/55/40 25/23/40 14/56/40
f 14/56/41 25/23/41 2/22/41
f 28/14/42 8/57/42 27/25/42
f 28/14/43 27/25/43 18/15/43
f 18/15/44 27/25/44 3/10/44
f 30/17/45 9/58/45 29/59/45
f 30/17/46 29/59/46 20/18/46
f 20/18/47 29/59/47 4/50/47
f 32/20/48 10/38/48 31/60/48
f 32/20/49 31/60/49 22/21/49
f 22/52/50 31/27/50 5/16/50
f 25/23/51 7/29/51 33/31/51
f 25/23/52 33/31/52 24/24/52
f 24/24/53 33/31/53 11/61/53
f 27/25/54 8/57/54 34/62/54
f 27/25/55 34/62/55 26/11/55
f 26/55/56 34/63/56 7/29/56
f 29/64/57 9/35/57 35/37/57
f 29/26/58 35/65/58 28/14/58
f 28/14/59 35/65/59 8/57/59
f 31/60/60 10/38/60 36/40/60
f 31/27/61 36/66/61 30/17/61
f 30/17/62 36/66/62 9/58/62
f 23/28/63 11/41/63 37/43/63
f 23/28/64 37/43/64 32/20/64
f 32/20/65 37/43/65 10/38/65
f 39/67/66 12/68/66 38/69/66
f 39/30/67 38/70/67 33/31/67
f 33/31/68 38/70/68 11/61/68
f 40/33/69 12/68/69 39/67/69
f 40/33/70 39/67/70 34/34/70
f 34/63/71 39/30/71 7/29/71
f 41/36/72 12/68/72 40/33/72
f 41/36/73 40/33/73 35/37/73
f 35/37/74 40/33/74 8/32/74
f 42/71/75 12/68/75 41/36/75
f 42/71/76 41/36/76 36/72/76
f 36/72/77 41/36/77 9/35/77
f 38/69/78 12/68/78 42/71/78
f 38/42/79 42/39/79 37/43/79
f 37/43/80 42/39/80 10/38/80
