# Blender v2.64 (sub 0) OBJ File: ''
# www.blender.org
mtllib stars.mtl
o Icosphere
v 0.000137 -277.598053 0.000000
v 200.871582 -124.146767 145.940369
v -76.725037 -124.146828 236.138016
v -248.290649 -124.146065 0.000000
v -76.725044 -124.146828 -236.138016
v 200.871582 -124.146767 -145.940369
v 76.725044 124.146828 236.138016
v -200.871582 124.146767 145.940369
v -200.871582 124.146767 -145.940369
v 76.725037 124.146828 -236.138016
v 248.290649 124.146065 0.000000
v -0.000137 277.598053 0.000000
v 116.298187 -232.598175 84.494736
v 71.877136 -143.754349 221.211700
v -44.421219 -232.598129 136.716034
v 116.298187 -232.598175 -84.494736
v 232.596573 -143.754074 0.000000
v -188.174469 -143.753967 136.716385
v -143.752350 -232.597656 0.000000
v -188.174469 -143.753967 -136.716385
v -44.421219 -232.598145 -136.716034
v 71.877121 -143.754364 -221.211700
v 260.051544 -0.000090 -84.495056
v 260.051544 -0.000090 84.495056
v 160.720612 -0.000028 221.212418
v 0.000002 0.000001 273.433899
v -160.720612 0.000029 221.212402
v -260.051544 0.000090 84.495056
v -260.051544 0.000090 -84.495056
v -160.720612 0.000028 -221.212402
v -0.000003 -0.000001 -273.433899
v 160.720612 -0.000029 -221.212402
v 188.174469 143.753967 136.716400
v -71.877121 143.754364 221.211700
v -232.596588 143.754074 0.000000
v -71.877136 143.754349 -221.211700
v 188.174469 143.753967 -136.716385
v 143.752350 232.597656 0.000000
v 44.421219 232.598145 136.716034
v -116.298187 232.598175 84.494736
v -116.298187 232.598175 -84.494736
v 44.421219 232.598129 -136.716034
vt 0.915695 0.256150
vt 0.787122 0.277263
vt 0.849070 0.144177
vt 0.773061 0.049921
vt 0.897880 0.035899
vt 0.880226 0.370638
vt 0.999717 0.295260
vt 0.980461 0.155300
vt 0.662560 0.608520
vt 0.561689 0.541536
vt 0.665000 0.482940
vt 0.226768 0.318836
vt 0.238198 0.192048
vt 0.333031 0.265351
vt 0.112073 0.635074
vt 0.206516 0.708872
vt 0.065374 0.715125
vt 0.111579 0.384324
vt 0.229435 0.433893
vt 0.102919 0.505100
vt 0.659008 0.192284
vt 0.554921 0.265577
vt 0.555073 0.118778
vt 0.561404 0.686713
vt 0.111142 0.265577
vt 0.229720 0.579070
vt 0.439556 0.065284
vt 0.427865 0.192048
vt 0.333182 0.118552
vt 0.665819 0.311054
vt 0.443548 0.736282
vt 0.333031 0.676595
vt 0.434888 0.615506
vt 0.007055 0.192284
vt 0.000000 0.073529
vt 0.110990 0.118778
vt 0.891939 0.398346
vt 0.815930 0.492602
vt 0.767120 0.384324
vt 0.998938 0.628213
vt 0.877878 0.625688
vt 0.960460 0.506287
vt 0.444042 0.485532
vt 0.333318 0.531419
vt 0.397343 0.405480
vt 0.666063 0.279788
vt 0.704540 0.157862
vt 1.000000 0.069132
vt 0.001349 0.589187
vt 0.735696 0.384324
vt 0.001062 0.444011
vt 0.666063 0.073529
vt 0.539008 0.000000
vt 0.538485 0.411734
vt 0.622482 0.384324
vt 0.226506 0.065284
vt 0.332880 0.118552
vt 0.664539 0.717840
vt 0.000243 0.311054
vt 0.127450 0.384324
vt 0.330591 0.512086
vt 0.439294 0.318836
vt 0.333031 0.637666
vt 0.290513 0.736282
vt 0.332570 0.402766
vt 0.538612 0.384324
vt 0.665284 0.643685
vt 0.749305 0.604576
vt 0.784774 0.719063
vt 0.684540 0.503725
vt 0.127055 0.000000
vt 0.665000 0.417557
vt 0.929304 0.732749
vn -0.111514 0.932618 -0.343203
vn -0.693896 0.678207 -0.241959
vn 0.291947 0.932618 -0.212111
vn 0.291947 0.932618 0.212111
vn -0.111514 0.932618 0.343203
vn -0.916926 0.317337 -0.241959
vn -0.053231 0.317338 -0.946817
vn 0.884028 0.317338 -0.343207
vn 0.599586 0.317339 0.734706
vn -0.513466 0.317338 0.797276
vn -0.805411 0.094312 -0.585165
vn 0.307641 0.094313 -0.946817
vn 0.995543 0.094312 0.000000
vn 0.307641 0.094313 0.946817
vn -0.805411 0.094312 0.585165
vn -0.419152 -0.678207 -0.603611
vn 0.444546 -0.678206 -0.585162
vn 0.693896 -0.678207 0.241959
vn -0.015690 -0.678207 0.734703
vn -0.703594 -0.678206 0.212112
vn 0.015690 0.678207 -0.734703
vn -0.187593 0.794656 -0.577348
vn -0.444546 0.678206 -0.585163
vn -0.693896 0.678207 0.241959
vn -0.607062 0.794654 0.000000
vn -0.360864 0.932619 0.000000
vn 0.703594 0.678206 -0.212112
vn 0.491122 0.794655 -0.356822
vn 0.419152 0.678207 -0.603611
vn 0.419152 0.678207 0.603611
vn 0.491122 0.794655 0.356822
vn 0.703594 0.678206 0.212112
vn -0.444546 0.678206 0.585162
vn -0.187593 0.794656 0.577348
vn 0.015690 0.678207 0.734703
vn -0.995543 -0.094312 0.000000
vn -0.982246 0.187595 0.000000
vn -0.916926 0.317337 0.241959
vn -0.307641 -0.094313 -0.946817
vn -0.303532 0.187594 -0.934172
vn -0.513466 0.317338 -0.797276
vn 0.805411 -0.094312 -0.585165
vn 0.794654 0.187594 -0.577350
vn 0.599586 0.317339 -0.734706
vn 0.805411 -0.094312 0.585165
vn 0.794654 0.187594 0.577350
vn 0.884028 0.317338 0.343207
vn -0.307641 -0.094313 0.946817
vn -0.303532 0.187594 0.934172
vn -0.053231 0.317338 0.946817
vn -0.599586 -0.317339 -0.734706
vn -0.794654 -0.187594 -0.577350
vn -0.884028 -0.317338 -0.343207
vn 0.513466 -0.317338 -0.797276
vn 0.303532 -0.187594 -0.934172
vn 0.053231 -0.317338 -0.946817
vn 0.916926 -0.317337 0.241959
vn 0.982246 -0.187595 0.000000
vn 0.916926 -0.317337 -0.241959
vn 0.053231 -0.317338 0.946817
vn 0.303532 -0.187594 0.934172
vn 0.513466 -0.317338 0.797276
vn -0.884028 -0.317338 0.343207
vn -0.794654 -0.187594 0.577350
vn -0.599586 -0.317339 0.734706
vn -0.291947 -0.932618 -0.212111
vn -0.491122 -0.794655 -0.356822
vn -0.703594 -0.678206 -0.212112
vn 0.111514 -0.932618 -0.343203
vn 0.187593 -0.794656 -0.577348
vn -0.015690 -0.678207 -0.734703
vn 0.360864 -0.932619 0.000000
vn 0.607062 -0.794654 0.000000
vn 0.693896 -0.678207 -0.241959
vn 0.111514 -0.932618 0.343203
vn 0.187593 -0.794656 0.577348
vn 0.444546 -0.678206 0.585163
vn -0.291947 -0.932618 0.212111
vn -0.491122 -0.794655 0.356822
vn -0.419152 -0.678207 0.603611
usemtl Material
s off
f 1/1/1 15/2/1 13/3/1
f 2/4/2 17/5/2 13/3/2
f 1/1/3 19/6/3 15/2/3
f 1/1/4 21/7/4 19/6/4
f 1/1/5 16/8/5 21/7/5
f 2/9/6 24/10/6 17/11/6
f 3/12/7 26/13/7 14/14/7
f 4/15/8 28/16/8 18/17/8
f 5/18/9 30/19/9 20/20/9
f 6/21/10 32/22/10 22/23/10
f 2/9/11 25/24/11 24/10/11
f 3/12/12 27/25/12 26/13/12
f 4/15/13 29/26/13 28/16/13
f 5/27/14 31/28/14 30/29/14
f 6/21/15 23/30/15 32/22/15
f 7/31/16 39/32/16 33/33/16
f 8/34/17 40/35/17 34/36/17
f 9/37/18 41/38/18 35/39/18
f 10/40/19 42/41/19 36/42/19
f 11/43/20 38/44/20 37/45/20
f 15/2/21 3/46/21 14/47/21
f 15/2/22 14/47/22 13/3/22
f 13/3/23 14/47/23 2/4/23
f 17/5/24 6/48/24 16/8/24
f 17/5/25 16/8/25 13/3/25
f 16/8/26 1/1/26 13/3/26
f 19/49/27 4/15/27 18/17/27
f 19/6/28 18/50/28 15/2/28
f 15/2/29 18/50/29 3/46/29
f 21/51/30 5/18/30 20/20/30
f 21/51/31 20/20/31 19/49/31
f 19/49/32 20/20/32 4/15/32
f 16/52/33 6/21/33 22/23/33
f 16/52/34 22/23/34 21/53/34
f 21/53/35 22/23/35 5/27/35
f 24/10/36 11/43/36 23/54/36
f 24/10/37 23/54/37 17/11/37
f 17/11/38 23/54/38 6/55/38
f 26/13/39 7/56/39 25/57/39
f 26/13/40 25/57/40 14/14/40
f 14/58/41 25/24/41 2/9/41
f 28/59/42 8/34/42 27/25/42
f 28/59/43 27/25/43 18/60/43
f 18/60/44 27/25/44 3/12/44
f 30/19/45 9/61/45 29/26/45
f 30/19/46 29/26/46 20/20/46
f 20/20/47 29/26/47 4/15/47
f 32/22/48 10/62/48 31/28/48
f 32/22/49 31/28/49 22/23/49
f 22/23/50 31/28/50 5/27/50
f 25/24/51 7/31/51 33/33/51
f 25/24/52 33/33/52 24/10/52
f 24/10/53 33/33/53 11/43/53
f 27/25/54 8/34/54 34/36/54
f 27/25/55 34/36/55 26/13/55
f 26/13/56 34/36/56 7/56/56
f 29/26/57 9/61/57 35/63/57
f 29/26/58 35/63/58 28/16/58
f 28/16/59 35/63/59 8/64/59
f 31/28/60 10/62/60 36/14/60
f 31/28/61 36/14/61 30/29/61
f 30/19/62 36/65/62 9/61/62
f 23/54/63 11/43/63 37/45/63
f 23/30/64 37/66/64 32/22/64
f 32/22/65 37/66/65 10/62/65
f 39/67/66 12/68/66 38/69/66
f 39/32/67 38/44/67 33/33/67
f 33/33/68 38/44/68 11/43/68
f 40/70/69 12/68/69 39/67/69
f 40/35/70 39/71/70 34/36/70
f 34/36/71 39/71/71 7/56/71
f 41/38/72 12/68/72 40/70/72
f 41/38/73 40/70/73 35/39/73
f 35/39/74 40/70/74 8/72/74
f 42/41/75 12/68/75 41/38/75
f 42/41/76 41/38/76 36/42/76
f 36/42/77 41/38/77 9/37/77
f 38/69/78 12/68/78 42/41/78
f 38/69/79 42/41/79 37/73/79
f 37/73/80 42/41/80 10/40/80
